<svg width="491" height="132" viewBox="0 0 491 132" fill="none" xmlns="http://www.w3.org/2000/svg">
<path d="M129.835 0.0498918L82.6462 0.0496315C80.7929 0.0495197 78.9365 0.0371848 77.0789 0.0248415C71.9695 -0.00910927 66.8505 -0.0431232 61.7585 0.176979C44.2737 1.18792 27.8654 8.54254 16.1197 21.7317C15.5418 22.3871 14.9803 23.0562 14.4352 23.7391C13.8901 24.4219 13.362 25.1177 12.851 25.8264C12.3401 26.5351 11.8468 27.256 11.3711 27.9889C10.8954 28.7218 10.4379 29.4659 9.99882 30.2213C9.55961 30.9766 9.13918 31.7422 8.73752 32.5181C8.33578 33.2941 7.95332 34.0794 7.59015 34.8741C7.22698 35.6688 6.88348 36.4718 6.55964 37.2834C6.2358 38.0949 5.93204 38.9138 5.64837 39.7403C5.36469 40.5667 5.10143 41.3995 4.85857 42.2388C4.61571 43.0781 4.39354 43.9228 4.19206 44.773C3.99058 45.6232 3.81007 46.4779 3.65053 47.337C3.49089 48.196 3.35245 49.0584 3.23522 49.9242C3.11789 50.79 3.02186 51.6582 2.94712 52.5288C2.87229 53.3993 2.81889 54.2711 2.78692 55.1442C2.75486 56.0174 2.74424 56.8909 2.75505 57.7646C2.76577 58.6382 2.79792 59.5111 2.8515 60.3832C3.49592 71.3516 7.85603 82.7943 15.0436 91.1399C9.19533 76.1415 6.66042 63.7919 12.116 47.988C17.5627 33.4051 27.3024 21.9859 41.6002 15.4531C44.0803 14.3201 46.6281 13.368 49.2434 12.5968C51.8587 11.8255 54.5154 11.2429 57.2134 10.8488C62.215 10.1169 67.2857 10.1444 72.3361 10.1719C73.2508 10.1768 74.1649 10.1818 75.0777 10.1822C78.3228 10.1839 81.5737 10.2116 84.8264 10.2393C97.9091 10.351 110.993 10.2151 124.076 10.1585L129.835 0.0498918Z" fill="#034001"/>
<path d="M87.2666 20.2902C93.5604 20.2653 99.8608 20.2405 106.144 20.4126C106.627 20.4258 107.099 20.439 107.564 20.4519C111.229 20.5538 114.406 20.6422 118.12 20.6425C117.083 22.7175 115.712 25.0379 114.178 27.6337C113.646 28.5353 113.093 29.4702 112.529 30.4395H80.4861C78.8971 30.4383 77.2958 30.416 75.689 30.3936C70.8402 30.3261 65.9409 30.2579 61.174 30.7661C59.581 30.9252 58.0061 31.1917 56.4494 31.5654C54.8928 31.939 53.3686 32.4164 51.8769 32.9976C51.3401 33.2109 50.8088 33.4371 50.2831 33.6763C49.7574 33.9155 49.2379 34.1675 48.7245 34.4321C48.2111 34.6968 47.7045 34.9739 47.2048 35.2633C46.705 35.5529 46.2126 35.8544 45.7276 36.168C45.2426 36.4816 44.7655 36.8069 44.2963 37.1439C43.8273 37.4808 43.3668 37.8291 42.9147 38.1886C42.4627 38.5482 42.0198 38.9185 41.5859 39.2997C41.152 39.6809 40.7277 40.0725 40.313 40.4746C39.8983 40.8766 39.4936 41.2885 39.0991 41.7103C38.7046 42.1322 38.3206 42.5634 37.9472 43.004C37.5738 43.4447 37.2114 43.8942 36.8601 44.3526C36.5087 44.811 36.1687 45.2777 35.8402 45.7528C35.5117 46.2278 35.195 46.7106 34.8901 47.2011C34.5852 47.6917 34.2926 48.1894 34.0121 48.6943C33.7315 49.1993 33.4636 49.7107 33.2081 50.2287C32.9527 50.7467 32.7101 51.2707 32.4803 51.8006C28.0296 62.0538 28.8141 71.2482 32.8295 81.4451C37.6142 81.2806 42.4247 81.3483 47.2204 81.4158C48.246 81.4303 49.2713 81.4447 50.2952 81.4568C53.7902 75.6543 58.1318 67.9292 61.693 61.5928C64.5702 56.4736 66.938 52.2606 67.9381 50.7004C64.65 50.7004 61.336 50.7144 58.029 50.7284C55.686 50.7382 53.3466 50.7481 51.0224 50.753C49.8866 50.7554 49.0809 50.634 48.5298 50.4265C45.9517 50.0901 45.7497 49.7451 49.6245 45.908C52.4565 43.5363 55.6154 41.8429 58.7106 40.912C59.9329 40.5444 60.8754 40.433 61.9915 40.4131C73.7699 40.2034 98.3514 40.2118 101.718 40.213L102.045 40.213C103.112 40.213 103.71 40.6736 104.318 41.8262C108.437 49.6452 110.788 57.5372 110.714 66.5967C110.712 67.3361 110.691 68.075 110.652 68.8135C110.612 69.5518 110.555 70.2888 110.479 71.0244C110.403 71.7599 110.308 72.4931 110.196 73.2239C110.084 73.9548 109.953 74.6825 109.805 75.4068C109.656 76.1312 109.49 76.8514 109.306 77.5675C109.121 78.2836 108.919 78.9947 108.7 79.7008C108.48 80.4068 108.243 81.107 107.989 81.8014C107.735 82.4957 107.463 83.1832 107.175 83.8641C106.886 84.5449 106.581 85.2181 106.259 85.8837C105.937 86.5494 105.598 87.2067 105.244 87.8556C104.889 88.5044 104.519 89.1441 104.132 89.7746C103.746 90.405 103.344 91.0255 102.927 91.636C102.51 92.2465 102.078 92.8462 101.631 93.4352C101.184 94.0243 100.722 94.6019 100.247 95.168C99.7708 95.734 99.2814 96.288 98.7781 96.8298C98.275 97.3716 97.7587 97.9006 97.2291 98.4168C83.5561 111.831 70.4108 111.808 53.0447 111.778C52.3539 111.777 51.6565 111.776 50.952 111.775L44.5959 111.759H12.4109C14.2875 108.376 16.2244 105.024 17.8872 101.528C25.5608 101.388 33.2505 101.429 40.9354 101.469C44.4889 101.488 48.0413 101.507 51.5907 101.508C52.9831 101.509 54.3883 101.527 55.7997 101.546L55.8011 101.546C60.1511 101.603 64.5593 101.661 68.828 101.191C71.858 100.863 74.7997 100.163 77.6531 99.092C78.2022 98.8842 78.746 98.6631 79.2842 98.4284C79.8225 98.1937 80.3546 97.9459 80.8806 97.6849C81.4066 97.4239 81.9258 97.1501 82.4383 96.8635C82.9507 96.5768 83.4558 96.2777 83.9534 95.966C84.451 95.6544 84.9407 95.3307 85.4223 94.9949C85.9039 94.6591 86.3769 94.3115 86.8414 93.9523C87.3059 93.593 87.7612 93.2225 88.2073 92.8407C88.6534 92.459 89.0898 92.0664 89.5165 91.663C89.9432 91.2596 90.3597 90.846 90.7659 90.4221C91.1722 89.9981 91.5677 89.5644 91.9524 89.1208C92.3372 88.6773 92.7109 88.2246 93.0733 87.7626C93.4356 87.3006 93.7863 86.8299 94.1254 86.3505C94.4646 85.8712 94.7916 85.3838 95.1066 84.8883C95.4216 84.3927 95.7242 83.8897 96.0144 83.3792C96.3045 82.8688 96.5818 82.3514 96.8463 81.8271C97.1108 81.3029 97.3623 80.7725 97.6006 80.2359C102.096 70.2581 101.012 60.6368 97.2437 50.6932L96.5681 50.6971C91.0712 50.729 85.1242 50.7635 79.4447 50.726C72.6894 63.2779 68.4958 70.9662 62.0416 81.4578C65.6136 81.4578 69.7438 81.373 73.8792 81.2881C78.025 81.203 82.176 81.1178 85.7751 81.1178C85.3763 81.5372 84.9716 81.9509 84.5611 82.359C81.6831 85.2262 78.4561 88.0495 74.5959 89.4933C70.0936 91.1774 55.9599 90.9438 41.5651 90.7058C36.4566 90.6214 31.3151 90.5364 26.5596 90.5364C21.9461 81.8239 19.016 74.6941 19.2792 64.6744C19.2973 63.9304 19.3337 63.1873 19.3886 62.4451C19.4434 61.7028 19.5166 60.9624 19.6081 60.2238C19.6996 59.4852 19.8093 58.7493 19.9373 58.0162C20.0653 57.2831 20.2112 56.5535 20.3753 55.8276C20.5393 55.1017 20.7212 54.3803 20.921 53.6634C21.1207 52.9464 21.3381 52.2349 21.5731 51.5287C21.808 50.8225 22.0603 50.1226 22.33 49.4289C22.5996 48.7352 22.8863 48.0486 23.1899 47.3692C23.4935 46.6897 23.8137 46.0181 24.1506 45.3544C24.4875 44.6908 24.8406 44.0359 25.2098 43.3898C25.5791 42.7436 25.9642 42.107 26.365 41.4799C26.7657 40.8528 27.1818 40.236 27.6132 39.6296C28.0444 39.023 28.4905 38.4275 28.9513 37.8431C29.4122 37.2587 29.8872 36.686 30.3763 36.1251C30.8654 35.5642 31.3681 35.0157 31.8845 34.4798C32.4008 33.9438 32.93 33.4208 33.4722 32.911C46.8624 20.2375 61.0193 20.2679 77.8181 20.3039C78.6915 20.3057 79.573 20.3076 80.461 20.3078C82.7279 20.3081 84.9968 20.2991 87.2666 20.2902Z" fill="#8CBF13"/>
<path d="M116.352 42.835C116.003 42.4857 115.635 42.1707 115.219 41.9039C115.48 42.5537 115.747 43.2054 116.014 43.8592C117.225 46.818 118.453 49.8199 119.261 52.8893C122.267 64.3016 120.932 77.2636 116.317 88.0555C115.96 88.8922 115.583 89.7197 115.186 90.5379C114.789 91.3562 114.372 92.1641 113.935 92.9617C113.498 93.7594 113.042 94.5459 112.567 95.3212C112.091 96.0964 111.597 96.8596 111.084 97.6106C110.571 98.3616 110.039 99.0994 109.49 99.8243C108.941 100.549 108.374 101.26 107.789 101.957C107.205 102.654 106.604 103.336 105.986 104.003C105.368 104.671 104.734 105.323 104.084 105.959C103.435 106.595 102.769 107.215 102.089 107.818C101.408 108.422 100.714 109.008 100.004 109.578C99.295 110.147 98.5722 110.698 97.8358 111.232C97.0994 111.766 96.3503 112.281 95.5886 112.778C94.8268 113.275 94.0533 113.753 93.2681 114.212C92.4829 114.671 91.6868 115.11 90.88 115.53C90.0731 115.95 89.2565 116.349 88.4299 116.729C87.6034 117.109 86.7681 117.468 85.924 117.806C73.9316 122.579 54.8846 122.299 38.76 122.031L38.783 121.988H36.1386C32.216 121.926 28.5079 121.881 25.1677 121.932L25.0948 121.988H5.91679L0 131.774H12.3322L12.112 131.942C12.6847 131.935 13.2578 131.926 13.8311 131.916C15.4821 131.889 17.1349 131.862 18.7839 131.888L49.6509 131.916C51.4264 131.917 53.212 131.937 55.0023 131.958C60.4465 132.02 65.9336 132.084 71.3089 131.59C72.2456 131.504 73.18 131.396 74.1121 131.269C75.0442 131.142 75.9731 130.995 76.8989 130.828C77.8247 130.662 78.7465 130.475 79.6643 130.269C80.5821 130.062 81.495 129.836 82.4032 129.591C83.3113 129.346 84.2138 129.082 85.1106 128.797C86.0074 128.514 86.8978 128.211 87.7816 127.889C88.6654 127.566 89.542 127.225 90.4113 126.865C91.2805 126.507 92.1416 126.129 92.9947 125.732C93.8478 125.336 94.6919 124.921 95.5272 124.488C96.3626 124.055 97.1883 123.605 98.0042 123.137C98.8203 122.669 99.626 122.184 100.421 121.682C101.217 121.18 102.001 120.66 102.774 120.123C103.547 119.588 104.308 119.035 105.057 118.467C105.807 117.899 106.544 117.314 107.268 116.714C107.992 116.114 108.704 115.499 109.402 114.868C110.1 114.237 110.784 113.592 111.454 112.932C112.082 112.305 112.694 111.663 113.29 111.005C113.886 110.348 114.466 109.676 115.029 108.99C115.591 108.304 116.137 107.604 116.665 106.891C117.193 106.178 117.703 105.452 118.196 104.714C118.688 103.975 119.162 103.225 119.617 102.463C120.072 101.701 120.508 100.929 120.925 100.145C121.342 99.362 121.739 98.5688 122.117 97.7658C122.495 96.9627 122.852 96.1507 123.19 95.33C123.527 94.5093 123.844 93.6806 124.141 92.8442C124.437 92.0077 124.713 91.1644 124.968 90.3143C125.223 89.4643 125.456 88.6085 125.669 87.7468C125.881 86.8852 126.072 86.0188 126.242 85.1476C126.411 84.2766 126.559 83.4018 126.685 82.5234C126.812 81.645 126.916 80.7639 126.998 79.8803C127.081 78.9967 127.142 78.1117 127.181 77.225C127.219 76.3385 127.236 75.4515 127.232 74.564C127.24 64.8603 123.375 49.8655 116.352 42.835Z" fill="#034001"/>
<path d="M183.513 43.0053C180.663 41.5803 176.844 40.8678 172.056 40.8678C164.646 40.8678 160.941 43.6038 160.941 49.0758C160.941 51.6979 163.249 54.4624 167.866 57.3694C171.685 59.8204 174.678 61.7585 176.844 63.1835C179.01 64.6085 180.321 65.549 180.777 66.005C185.394 70.052 187.703 74.7261 187.703 80.0271C187.703 85.9552 185.423 90.6007 180.863 93.9637C176.986 96.8137 172.341 98.2388 166.926 98.2388C161.511 98.2388 156.552 97.2412 152.049 95.2462L153.16 85.7557C157.435 88.1497 162.138 89.3467 167.268 89.3467C174.849 89.3467 178.639 86.0122 178.639 79.3431C178.639 76.7211 176.331 73.8711 171.714 70.793C167.553 68 164.389 65.8625 162.223 64.3805C160.114 62.8985 158.974 62.1005 158.803 61.9865C154.243 58.0534 151.963 53.7499 151.963 49.0758C151.963 43.7748 154.015 39.5283 158.119 36.3362C161.824 33.4862 166.498 32.0612 172.141 32.0612C176.815 32.0612 181.119 32.8022 185.052 34.2842L183.513 43.0053ZM231.558 96.1867C228.366 97.2127 224.29 97.7258 219.331 97.7258C212.32 97.7258 206.791 95.2747 202.744 90.3727C199.096 85.9837 197.272 80.3691 197.272 73.529C197.272 66.518 199.381 60.7324 203.599 56.1724C207.874 51.6694 213.261 49.4178 219.759 49.4178C224.091 49.4178 228.024 50.0164 231.558 51.2134L230.874 59.5069C227.511 58.1389 224.005 57.4549 220.357 57.4549C215.911 57.4549 212.434 58.9369 209.926 61.901C207.475 64.808 206.25 68.684 206.25 73.529C206.25 78.0891 207.504 81.9366 210.012 85.0716C212.463 88.1497 215.712 89.6887 219.759 89.6887C223.464 89.6887 227.169 89.0047 230.874 87.6367L231.558 96.1867ZM266.047 97.0417V92.5102C263.254 96.1582 259.235 97.9823 253.991 97.9823C248.291 97.9823 244.073 96.3862 241.337 93.1942C239.399 90.8572 238.43 88.0072 238.43 84.6441C238.43 73.016 246.98 67.202 264.08 67.202H265.363V65.663C265.363 60.0769 262.769 57.2839 257.582 57.2839C252.908 57.2839 248.291 58.5094 243.731 60.9604V52.5814C248.063 50.3584 252.851 49.2468 258.095 49.2468C263.567 49.2468 267.557 50.5294 270.065 53.0944C272.744 55.8874 274.084 60.2194 274.084 66.0905V86.0122C274.084 91.2562 274.255 94.9327 274.597 97.0417H266.047ZM265.363 75.1536H263.567C259.121 75.1536 255.701 75.5526 253.307 76.3506C249.488 77.6046 247.578 80.0841 247.578 83.7891C247.578 87.8932 249.944 89.9452 254.675 89.9452C261.8 89.9452 265.363 85.6132 265.363 76.9491V75.1536ZM325.121 96.9562H316.229V68.3135C316.229 60.9604 313.55 57.2839 308.192 57.2839C304.544 57.2839 301.779 58.7374 299.898 61.6444C298.359 64.1525 297.59 67.373 297.59 71.306V96.9562H288.698V62.1575C288.698 59.9344 288.641 57.8539 288.527 55.9159C288.47 53.9209 288.384 52.0399 288.27 50.2729H296.82V54.9754C299.613 51.1564 303.746 49.2468 309.218 49.2468C319.82 49.2468 325.121 55.1464 325.121 66.9455V96.9562ZM357.906 56.5999C354.03 56.5999 351.151 58.3384 349.27 61.8155C347.674 64.6655 346.876 68.5415 346.876 73.4435C346.876 84.3306 350.553 89.7742 357.906 89.7742C361.44 89.7742 364.233 88.0072 366.285 84.4731C367.938 81.4521 368.764 77.6901 368.764 73.187C368.764 68.684 367.938 64.922 366.285 61.901C364.29 58.3669 361.497 56.5999 357.906 56.5999ZM377.4 97.0417H368.764V92.7667C365.914 96.3007 362.01 98.0678 357.051 98.0678C350.838 98.0678 346.021 95.7592 342.601 91.1422C339.409 86.6392 337.813 80.7396 337.813 73.4435C337.813 65.9195 339.295 59.9914 342.259 55.6594C345.508 50.8144 350.439 48.3918 357.051 48.3918C361.611 48.3918 365.515 50.2729 368.764 54.0349V28.3847H377.4V97.0417Z" fill="#8CBF13"/>
<path d="M411.895 67.886H388.724V59.1649H411.895V67.886ZM432.097 96.6142H422.692V33.3437H432.097V96.6142ZM482.596 96.9562H473.704V68.3135C473.704 60.9604 471.025 57.2839 465.667 57.2839C462.019 57.2839 459.254 58.7374 457.373 61.6444C455.834 64.1525 455.065 67.373 455.065 71.306V96.9562H446.173V62.1575C446.173 59.9344 446.116 57.8539 446.002 55.9159C445.945 53.9209 445.859 52.0399 445.745 50.2729H454.295V54.9754C457.088 51.1564 461.221 49.2468 466.693 49.2468C477.295 49.2468 482.596 55.1464 482.596 66.9455V96.9562Z" fill="black"/>
<path d="M151.438 110.549L148.857 126.095H146.975L149.555 110.549H151.438ZM155.334 119.081L154.18 126.095H152.389L154.332 114.435H156.062L155.759 116.257H155.911C156.275 115.665 156.768 115.189 157.391 114.83C158.013 114.466 158.765 114.284 159.645 114.284C160.425 114.284 161.082 114.446 161.619 114.769C162.16 115.088 162.542 115.574 162.765 116.227C162.993 116.875 163.026 117.694 162.864 118.686L161.619 126.095H159.827L161.042 118.808C161.194 117.897 161.075 117.183 160.685 116.667C160.301 116.151 159.691 115.893 158.856 115.893C158.279 115.893 157.745 116.017 157.254 116.265C156.768 116.513 156.356 116.875 156.017 117.35C155.683 117.826 155.455 118.403 155.334 119.081ZM169.28 126.338C168.303 126.338 167.483 126.092 166.82 125.601C166.157 125.105 165.689 124.407 165.416 123.506C165.148 122.6 165.115 121.53 165.317 120.295C165.525 119.071 165.912 118.008 166.479 117.107C167.051 116.207 167.751 115.511 168.581 115.02C169.411 114.529 170.317 114.284 171.299 114.284C172.058 114.284 172.637 114.41 173.037 114.663C173.442 114.911 173.735 115.195 173.917 115.513C174.1 115.827 174.239 116.085 174.335 116.288H174.487L175.443 110.549H177.235L174.654 126.095H172.923L173.227 124.303H173.014C172.847 124.516 172.614 124.784 172.316 125.108C172.017 125.427 171.623 125.713 171.132 125.966C170.646 126.214 170.029 126.338 169.28 126.338ZM169.72 124.728C170.438 124.728 171.081 124.541 171.648 124.167C172.22 123.787 172.695 123.263 173.075 122.595C173.454 121.922 173.718 121.146 173.864 120.265C174.011 119.395 174.006 118.633 173.849 117.98C173.692 117.322 173.391 116.811 172.946 116.447C172.501 116.078 171.911 115.893 171.177 115.893C170.423 115.893 169.768 116.088 169.211 116.477C168.655 116.862 168.202 117.386 167.853 118.049C167.503 118.706 167.261 119.445 167.124 120.265C166.987 121.095 166.985 121.849 167.116 122.527C167.248 123.2 167.526 123.736 167.951 124.136C168.381 124.531 168.971 124.728 169.72 124.728ZM182.981 126.338C181.908 126.338 181.01 126.082 180.286 125.571C179.562 125.06 179.051 124.344 178.753 123.423C178.459 122.502 178.411 121.429 178.608 120.204C178.801 119.01 179.183 117.97 179.755 117.085C180.332 116.194 181.048 115.506 181.903 115.02C182.763 114.529 183.709 114.284 184.742 114.284C185.815 114.284 186.71 114.542 187.429 115.058C188.152 115.569 188.664 116.288 188.962 117.214C189.261 118.135 189.311 119.212 189.114 120.447C188.922 121.631 188.534 122.666 187.953 123.552C187.376 124.432 186.66 125.118 185.804 125.609C184.954 126.095 184.013 126.338 182.981 126.338ZM183.011 124.728C183.831 124.728 184.542 124.518 185.144 124.098C185.751 123.678 186.242 123.124 186.617 122.436C186.996 121.748 187.252 121.004 187.383 120.204C187.505 119.445 187.5 118.739 187.368 118.087C187.236 117.429 186.956 116.9 186.526 116.5C186.095 116.095 185.491 115.893 184.711 115.893C183.892 115.893 183.176 116.105 182.563 116.53C181.956 116.956 181.465 117.515 181.091 118.208C180.716 118.901 180.466 119.648 180.339 120.447C180.218 121.206 180.22 121.912 180.347 122.565C180.478 123.213 180.759 123.736 181.189 124.136C181.624 124.531 182.232 124.728 183.011 124.728ZM198.847 118.595L198.574 120.265H191.773L192.046 118.595H198.847ZM211.411 114.557C211.411 113.722 211.136 113.089 210.584 112.659C210.032 112.224 209.286 112.006 208.345 112.006C207.657 112.006 207.037 112.118 206.485 112.34C205.933 112.563 205.483 112.869 205.134 113.259C204.785 113.649 204.57 114.091 204.489 114.587C204.423 115.002 204.466 115.359 204.618 115.658C204.77 115.951 204.985 116.196 205.263 116.394C205.546 116.586 205.85 116.746 206.174 116.872C206.498 116.993 206.796 117.092 207.07 117.168L208.588 117.593C208.967 117.699 209.39 117.846 209.855 118.033C210.321 118.221 210.756 118.476 211.161 118.8C211.566 119.119 211.874 119.529 212.087 120.03C212.305 120.531 212.353 121.146 212.231 121.874C212.089 122.714 211.743 123.473 211.191 124.151C210.645 124.83 209.921 125.368 209.02 125.768C208.125 126.168 207.08 126.368 205.885 126.368C204.772 126.368 203.836 126.188 203.077 125.829C202.323 125.47 201.766 124.969 201.407 124.326C201.053 123.683 200.916 122.937 200.997 122.087H202.94C202.89 122.674 203.006 123.16 203.289 123.544C203.573 123.924 203.967 124.207 204.474 124.394C204.98 124.577 205.541 124.668 206.159 124.668C206.877 124.668 207.54 124.551 208.147 124.318C208.76 124.081 209.266 123.752 209.666 123.332C210.07 122.907 210.318 122.411 210.409 121.844C210.5 121.328 210.43 120.908 210.197 120.584C209.964 120.26 209.628 119.997 209.187 119.794C208.747 119.592 208.264 119.415 207.737 119.263L205.916 118.717C204.762 118.367 203.884 117.869 203.282 117.221C202.685 116.573 202.47 115.726 202.637 114.678C202.788 113.808 203.155 113.049 203.737 112.401C204.319 111.748 205.04 111.242 205.901 110.883C206.761 110.519 207.687 110.337 208.679 110.337C209.681 110.337 210.538 110.519 211.252 110.883C211.965 111.242 212.497 111.741 212.846 112.378C213.195 113.011 213.324 113.737 213.233 114.557H211.411ZM217.027 126.095L215.417 114.435H217.3L218.332 123.362H218.454L222.431 114.435H224.344L225.315 123.332H225.437L229.445 114.435H231.327L225.832 126.095H224.071L223.008 117.138H222.826L218.788 126.095H217.027ZM236.214 126.338C235.095 126.338 234.172 126.09 233.443 125.594C232.714 125.093 232.206 124.394 231.917 123.499C231.629 122.598 231.583 121.55 231.781 120.356C231.978 119.162 232.37 118.109 232.957 117.198C233.544 116.282 234.276 115.569 235.151 115.058C236.026 114.542 236.988 114.284 238.035 114.284C238.643 114.284 239.227 114.385 239.789 114.587C240.351 114.79 240.836 115.119 241.246 115.574C241.656 116.024 241.942 116.622 242.104 117.365C242.266 118.109 242.256 119.025 242.074 120.113L241.952 120.872H232.965L233.208 119.324H240.373C240.49 118.666 240.459 118.079 240.282 117.563C240.11 117.047 239.809 116.639 239.379 116.341C238.954 116.042 238.415 115.893 237.762 115.893C237.089 115.893 236.462 116.075 235.88 116.439C235.298 116.799 234.812 117.254 234.422 117.806C234.033 118.352 233.79 118.909 233.694 119.476L233.481 120.812C233.329 121.778 233.352 122.547 233.549 123.119C233.752 123.691 234.103 124.103 234.604 124.356C235.105 124.604 235.733 124.728 236.487 124.728C236.968 124.728 237.41 124.663 237.815 124.531C238.22 124.394 238.582 124.192 238.901 123.924C239.22 123.65 239.488 123.311 239.705 122.907L241.345 123.392C241.067 123.979 240.674 124.496 240.168 124.941C239.667 125.381 239.08 125.725 238.407 125.973C237.739 126.216 237.008 126.338 236.214 126.338ZM248.226 126.338C247.249 126.338 246.429 126.092 245.766 125.601C245.104 125.105 244.635 124.407 244.362 123.506C244.094 122.6 244.061 121.53 244.264 120.295C244.471 119.071 244.858 118.008 245.425 117.107C245.997 116.207 246.698 115.511 247.528 115.02C248.357 114.529 249.263 114.284 250.245 114.284C251.004 114.284 251.583 114.41 251.983 114.663C252.388 114.911 252.682 115.195 252.864 115.513C253.046 115.827 253.185 116.085 253.281 116.288H253.433L254.389 110.549H256.181L253.6 126.095H251.869L252.173 124.303H251.96C251.793 124.516 251.561 124.784 251.262 125.108C250.964 125.427 250.569 125.713 250.078 125.966C249.592 126.214 248.975 126.338 248.226 126.338ZM248.666 124.728C249.385 124.728 250.027 124.541 250.594 124.167C251.166 123.787 251.642 123.263 252.021 122.595C252.401 121.922 252.664 121.146 252.811 120.265C252.957 119.395 252.952 118.633 252.795 117.98C252.639 117.322 252.337 116.811 251.892 116.447C251.447 116.078 250.857 115.893 250.123 115.893C249.369 115.893 248.714 116.088 248.158 116.477C247.601 116.862 247.148 117.386 246.799 118.049C246.45 118.706 246.207 119.445 246.07 120.265C245.933 121.095 245.931 121.849 246.063 122.527C246.194 123.2 246.472 123.736 246.897 124.136C247.328 124.531 247.917 124.728 248.666 124.728ZM261.972 126.338C260.854 126.338 259.931 126.09 259.202 125.594C258.473 125.093 257.965 124.394 257.676 123.499C257.388 122.598 257.342 121.55 257.54 120.356C257.737 119.162 258.129 118.109 258.716 117.198C259.303 116.282 260.034 115.569 260.91 115.058C261.785 114.542 262.747 114.284 263.794 114.284C264.401 114.284 264.986 114.385 265.548 114.587C266.109 114.79 266.595 115.119 267.005 115.574C267.415 116.024 267.701 116.622 267.863 117.365C268.025 118.109 268.015 119.025 267.832 120.113L267.711 120.872H258.724L258.967 119.324H266.132C266.249 118.666 266.218 118.079 266.041 117.563C265.869 117.047 265.568 116.639 265.138 116.341C264.713 116.042 264.174 115.893 263.521 115.893C262.848 115.893 262.22 116.075 261.638 116.439C261.057 116.799 260.571 117.254 260.181 117.806C259.791 118.352 259.549 118.909 259.452 119.476L259.24 120.812C259.088 121.778 259.111 122.547 259.308 123.119C259.511 123.691 259.862 124.103 260.363 124.356C260.864 124.604 261.492 124.728 262.246 124.728C262.726 124.728 263.169 124.663 263.574 124.531C263.979 124.394 264.341 124.192 264.66 123.924C264.978 123.65 265.247 123.311 265.464 122.907L267.104 123.392C266.825 123.979 266.433 124.496 265.927 124.941C265.426 125.381 264.839 125.725 264.166 125.973C263.498 126.216 262.767 126.338 261.972 126.338ZM272.542 119.081L271.389 126.095H269.597L271.54 114.435H273.271L272.967 116.257H273.119C273.484 115.665 273.977 115.189 274.599 114.83C275.222 114.466 275.973 114.284 276.854 114.284C277.633 114.284 278.291 114.446 278.827 114.769C279.369 115.088 279.751 115.574 279.974 116.227C280.201 116.875 280.234 117.694 280.072 118.686L278.827 126.095H277.036L278.251 118.808C278.402 117.897 278.283 117.183 277.894 116.667C277.509 116.151 276.899 115.893 276.064 115.893C275.488 115.893 274.954 116.017 274.463 116.265C273.977 116.513 273.565 116.875 273.226 117.35C272.892 117.826 272.664 118.403 272.542 119.081Z" fill="black"/>
</svg>
